HIERARCHY
ROOT Model_Hips
{
	OFFSET 0.000000 96.915077 0.000000
	CHANNELS 6 Xposition Yposition Zposition Xrotation Yrotation Zrotation
	JOINT Model_Spine
	{
		OFFSET 0.000000 11.137703 -1.289900
		CHANNELS 3 Xrotation Yrotation Zrotation
		JOINT Model_Spine1
		{
			OFFSET 0.000000 12.993942 -1.504922
			CHANNELS 3 Xrotation Yrotation Zrotation
			JOINT Model_Spine2
			{
				OFFSET 0.000000 14.850220 -1.719911
				CHANNELS 3 Xrotation Yrotation Zrotation
				JOINT Model_Neck
				{
					OFFSET 0.000000 16.706543 -1.934903
					CHANNELS 3 Xrotation Yrotation Zrotation
					JOINT Model_Head
					{
						OFFSET 0.000000 10.471298 2.002100
						CHANNELS 3 Xrotation Yrotation Zrotation
						JOINT Model_HeadTop_End
						{
							OFFSET 0.000000 20.842606 3.985100
							CHANNELS 3 Xrotation Yrotation Zrotation
							End Site
							{
								OFFSET 0.000000 21.220154 0.000000
							}
						}
					}
				}
				JOINT Model_LeftShoulder
				{
					OFFSET 7.008500 14.768600 -1.919946
					CHANNELS 3 Xrotation Yrotation Zrotation
					JOINT Model_LeftArm
					{
						OFFSET 14.126271 -3.718048 0.029937
						CHANNELS 3 Xrotation Yrotation Zrotation
						JOINT Model_LeftForeArm
						{
							OFFSET 28.282801 0.000000 0.000000
							CHANNELS 3 Xrotation Yrotation Zrotation
							JOINT Model_LeftHand
							{
								OFFSET 26.204689 0.000000 0.000000
								CHANNELS 3 Xrotation Yrotation Zrotation
								End Site
								{
									OFFSET 26.204704 0.000000 0.000000
								}
							}
						}
					}
				}
				JOINT Model_RightShoulder
				{
					OFFSET -7.008500 14.768555 -1.949840
					CHANNELS 3 Xrotation Yrotation Zrotation
					JOINT Model_RightArm
					{
						OFFSET -14.126281 -3.718018 -0.029932
						CHANNELS 3 Xrotation Yrotation Zrotation
						JOINT Model_RightForeArm
						{
							OFFSET -28.283798 0.000000 -0.000001
							CHANNELS 3 Xrotation Yrotation Zrotation
							JOINT Model_RightHand
							{
								OFFSET -26.204193 0.000000 -0.000001
								CHANNELS 3 Xrotation Yrotation Zrotation
								End Site
								{
									OFFSET -26.204208 0.000000 -0.000001
								}
							}
						}
					}
				}
			}
		}
	}
	JOINT Model_LeftUpLeg
	{
		OFFSET 8.327700 -6.193199 -0.402800
		CHANNELS 3 Xrotation Yrotation Zrotation
		JOINT Model_LeftLeg
		{
			OFFSET 0.735802 -42.108742 -0.610721
			CHANNELS 3 Xrotation Yrotation Zrotation
			JOINT Model_LeftFoot
			{
				OFFSET -0.735806 -36.833748 -0.172876
				CHANNELS 3 Xrotation Yrotation Zrotation
				JOINT Model_LeftToeBase
				{
					OFFSET -0.565857 -11.977769 16.297714
					CHANNELS 3 Xrotation Yrotation Zrotation
					JOINT Model_LeftToe_End
					{
						OFFSET -0.111712 -0.312793 7.857784
						CHANNELS 3 Xrotation Yrotation Zrotation
						End Site
						{
							OFFSET -0.111712 -0.312793 7.857784
						}
					}
				}
			}
		}
	}
	JOINT Model_RightUpLeg
	{
		OFFSET -8.327700 -6.193199 -0.516500
		CHANNELS 3 Xrotation Yrotation Zrotation
		JOINT Model_RightLeg
		{
			OFFSET -0.735785 -42.108738 -0.434061
			CHANNELS 3 Xrotation Yrotation Zrotation
			JOINT Model_RightFoot
			{
				OFFSET 0.735776 -36.833748 -0.021630
				CHANNELS 3 Xrotation Yrotation Zrotation
				JOINT Model_RightToeBase
				{
					OFFSET 0.565817 -11.977745 15.903093
					CHANNELS 3 Xrotation Yrotation Zrotation
					JOINT Model_RightToe_End
					{
						OFFSET 0.111702 -0.312791 7.811342
						CHANNELS 3 Xrotation Yrotation Zrotation
						End Site
						{
							OFFSET 0.111702 -0.312791 7.811342
						}
					}
				}
			}
		}
	}
}
MOTION
Frames: 7
Frame Time: 0.016667
-225.810593 94.817177 -70.196106 -175.997541 -3.438080 -184.545250 10.571431 9.651277 2.605218 1.194494 1.595563 0.204486 1.206715 1.588945 0.176214 0.671190 2.390325 1.006764 -4.238997 3.128914 1.167803 0.000000 -0.000000 0.000000 -0.031807 -10.393249 -19.783662 -12.568228 25.788405 -59.151904 -0.000015 -6.684300 -0.000013 -0.000003 -0.000000 0.000000 0.872845 -3.414901 14.465040 0.231623 23.200766 19.006798 0.000016 128.432186 -0.000026 0.000002 -0.000000 -0.000001 -28.215132 -4.345967 7.238930 22.499285 8.082060 1.804920 -16.222941 12.386684 -11.157052 20.558890 -0.000011 -0.000005 0.000001 -0.000001 -0.000002 13.226082 1.072479 11.026379 8.051852 -4.664225 -1.675208 -15.448069 -3.347473 -3.434367 -4.971993 -0.000002 -0.000001 0.000000 0.000000 0.000000 
-226.036499 94.617638 -71.754471 -176.042703 -3.075167 -184.700200 10.562095 9.679198 2.631325 1.240085 1.599264 0.166653 1.252763 1.592305 0.138663 0.652069 2.414022 1.024393 -4.258855 3.151203 1.186749 -0.000000 0.000000 -0.000000 -0.023587 -10.265540 -19.833382 -12.759234 25.934648 -59.267949 0.000009 -6.275676 -0.000026 -0.000005 -0.000000 -0.000001 0.900218 -3.668593 14.728050 2.290156 22.623748 19.951235 0.000029 127.693679 -0.000017 0.000003 -0.000001 0.000002 -27.755768 -4.342194 7.428793 20.777714 8.305521 1.259848 -13.999256 8.217718 -9.663896 15.539927 0.000006 0.000003 0.000001 -0.000001 -0.000001 14.173118 0.902871 10.950543 8.300809 -3.869116 -1.646455 -15.971981 -3.357794 -3.316203 -5.358895 -0.000001 0.000000 -0.000000 -0.000000 0.000000 
-226.276352 94.429001 -73.348091 -176.006366 -2.604567 -184.744760 10.538580 9.737886 2.492626 1.302975 1.612625 0.119491 1.315717 1.605332 0.091834 0.621601 2.431828 1.049173 -4.290057 3.166807 1.212044 -0.000000 0.000001 0.000000 -0.015262 -10.114967 -19.919034 -13.039000 25.956027 -59.255600 -0.000018 -5.904265 0.000003 -0.000001 0.000000 0.000000 0.929214 -3.927898 14.989572 4.304746 21.932029 21.130315 0.000007 126.910584 -0.000010 0.000002 0.000000 0.000001 -26.865834 -4.349015 7.572049 18.902193 8.640806 0.823536 -9.931606 4.783365 -8.227721 10.643087 -0.000001 0.000010 -0.000001 0.000000 -0.000000 14.831814 0.632109 10.709936 9.379659 -3.059337 -1.618171 -16.756010 -3.354499 -3.202942 -5.959449 0.000002 -0.000001 0.000000 0.000000 0.000000 
-226.528152 94.264999 -74.980072 -175.909965 -2.015651 -184.649479 10.495026 9.803262 2.174263 1.378481 1.631487 0.062682 1.390780 1.623962 0.035449 0.593678 2.448411 1.072097 -4.318411 3.181144 1.235263 -0.000000 0.000001 -0.000000 -0.007202 -9.951103 -20.036754 -13.373592 25.866857 -59.119590 -0.000001 -5.583955 0.000006 -0.000003 -0.000000 -0.000001 0.957706 -4.173795 15.232556 6.305790 21.133106 22.559522 0.000046 126.052070 -0.000051 0.000007 0.000003 0.000001 -25.542073 -4.340268 7.673743 16.819436 9.022690 0.463186 -4.614530 2.184778 -7.088556 6.481294 -0.000008 0.000003 0.000001 -0.000001 0.000000 15.298446 0.272752 10.257547 11.019409 -2.235490 -1.591988 -17.643098 -3.341587 -3.135791 -6.907109 -0.000001 0.000002 0.000000 -0.000000 0.000000 
-226.790970 94.137619 -76.661728 -175.798428 -1.341301 -184.394699 10.427584 9.833900 1.697894 1.458071 1.647528 -0.006514 1.469458 1.639854 -0.033146 0.582520 2.469373 1.082792 -4.329585 3.200750 1.246746 0.000000 -0.000001 0.000000 0.000424 -9.785294 -20.175527 -13.724443 25.701773 -58.875343 -0.000004 -5.329088 0.000025 -0.000003 0.000000 -0.000000 0.983416 -4.392471 15.439344 8.299824 20.259220 24.238922 0.000028 125.082129 -0.000012 -0.000002 -0.000002 -0.000001 -23.855020 -4.279970 7.693223 14.530801 9.407918 0.144090 1.092108 0.336227 -6.367197 3.400377 -0.000011 0.000001 0.000001 -0.000001 0.000000 15.661299 -0.158902 9.569776 12.919281 -1.417156 -1.569589 -18.452734 -3.330361 -3.119344 -8.421131 -0.000003 0.000001 0.000000 0.000000 0.000000 
-227.062744 94.054939 -78.394676 -175.711124 -0.657407 -183.980803 10.336120 9.785294 1.122719 1.530988 1.650765 -0.092247 1.541095 1.643032 -0.118065 0.599373 2.499852 1.069977 -4.312437 3.231805 1.235881 0.000001 -0.000003 0.000000 0.007563 -9.627865 -20.320132 -14.057933 25.505897 -58.547166 0.000002 -5.148568 -0.000005 -0.000002 0.000000 0.000000 1.004330 -4.577831 15.592777 10.275339 19.357436 26.148227 0.000049 123.971799 -0.000039 -0.000000 0.000003 0.000001 -21.983136 -4.160274 7.568369 12.202438 8.772683 -0.155617 6.278326 0.032367 -6.057585 1.447454 0.000001 -0.000001 0.000000 -0.000000 0.000000 15.924851 -0.655460 8.664588 14.950777 -0.657580 -1.552166 -19.058113 -3.336274 -3.111554 -10.730682 0.000000 0.000001 -0.000000 0.000000 0.000000 
-227.342606 94.020966 -80.161659 -175.656264 -0.056775 -183.438691 10.225876 9.626361 0.532513 1.586125 1.633029 -0.197904 1.594847 1.625269 -0.222699 0.649925 2.543425 1.022478 -4.261026 3.278966 1.191991 -0.000000 -0.000000 -0.000000 0.014248 -9.485529 -20.455812 -14.352736 25.320327 -58.165973 0.000012 -5.042636 0.000003 -0.000003 0.000000 -0.000001 1.018984 -4.730370 15.677678 12.210385 18.474956 28.245189 0.000047 122.710591 -0.000052 0.000003 -0.000001 -0.000001 -21.558389 -4.141020 6.940594 13.048778 7.819536 -0.419627 8.693005 0.290809 -4.797214 0.427798 0.000006 0.000001 0.000000 -0.000001 -0.000000 16.051880 -1.208635 7.602199 17.116299 -0.021109 -1.539430 -19.357419 -3.381185 -3.031709 -13.597294 -0.000005 -0.000001 0.000000 0.000000 0.000000 
